# xmcd
#
# Track frame offsets:
#	150
#	27780
#	59033
#	83150
#	105144
#
# Disc length: 1774 seconds
#
# Revision: 1
# Processed by: cddbd v1.5PL3 Copyright (c) Steve Scherf et al.
# Submitted via: CDex 1.50Beta5
#
DISCID=3206ec05
DTITLE=川口大輔 - BOFORE THE DAWN
DYEAR=2003
DGENRE=New Age
TTITLE0=Let’s Get Together Now
TTITLE1=STARS
TTITLE2=WILL(ensemble in the DAWN)
TTITLE3=Rewind
TTITLE4=君をさがしてた
EXTD=
EXTT0=
EXTT1=
EXTT2=
EXTT3=
EXTT4=
PLAYORDER=
